<?xml version="1.0" encoding="UTF-8" standalone="no"?>
<svg
   xmlns:dc="http://purl.org/dc/elements/1.1/"
   xmlns:cc="http://creativecommons.org/ns#"
   xmlns:rdf="http://www.w3.org/1999/02/22-rdf-syntax-ns#"
   xmlns:svg="http://www.w3.org/2000/svg"
   xmlns="http://www.w3.org/2000/svg"
   viewBox="0 0 3183.3601 2871.4268"
   height="2871.4268"
   width="3183.3601"
   xml:space="preserve"
   id="svg2"
   version="1.1"><metadata
     id="metadata8"><rdf:RDF><cc:Work
         rdf:about=""><dc:format>image/svg+xml</dc:format><dc:type
           rdf:resource="http://purl.org/dc/dcmitype/StillImage" /></cc:Work></rdf:RDF></metadata><defs
     id="defs6"><clipPath
       id="clipPath18"
       clipPathUnits="userSpaceOnUse"><path
         id="path16"
         d="M 0,2153.569 H 2387.523 V 0 H 0 Z" /></clipPath></defs><g
     transform="matrix(1.3333333,0,0,-1.3333333,0,2871.4267)"
     id="g10"><g
       id="g12"><g
         clip-path="url(#clipPath18)"
         id="g14"><g
           transform="translate(1176.6411,1997.9087)"
           id="g20"><path
             id="path22"
             style="fill:#6e20a0;fill-opacity:1;fill-rule:nonzero;stroke:none"
             d="m 0,0 c -509.462,0 -926.02,-397.709 -956.173,-899.596 -1.163,-13.607 -1.764,-27.377 -1.764,-41.285 0,-2.453 0.025,-4.898 0.062,-7.341 -0.033,-3.237 -0.062,-6.476 -0.062,-9.719 h 0.306 c 8.985,-256.625 219.847,-461.907 478.663,-461.907 258.818,0 469.682,205.282 478.667,461.907 H 0.31 c -0.199,5.663 -0.307,11.348 -0.307,17.06 0,264.527 214.442,478.968 478.97,478.968 250.601,0 456.245,-192.458 477.204,-437.63 C 925.996,-397.682 509.445,0 0,0" /></g><g
           transform="translate(2134.2798,1039.9678)"
           id="g24"><path
             id="path26"
             style="fill:#6e20a0;fill-opacity:1;fill-rule:nonzero;stroke:none"
             d="M 0,0 H 0.304 C 0.304,3.228 0.275,6.445 0.243,9.663 0.194,6.436 0.111,3.215 0,0" /></g><g
           transform="translate(1176.646,116.6328)"
           id="g28"><path
             id="path30"
             style="fill:#4d1877;fill-opacity:1;fill-rule:nonzero;stroke:none"
             d="m 0,0 c 509.464,0 926.021,397.71 956.175,899.598 1.163,13.606 1.763,27.375 1.763,41.285 0,2.453 -0.025,4.897 -0.061,7.341 0.032,3.235 0.061,6.473 0.061,9.718 h -0.306 c -8.985,256.625 -219.845,461.909 -478.663,461.909 -258.818,0 -469.682,-205.284 -478.665,-461.909 h -0.612 c 0.199,-5.663 0.305,-11.348 0.305,-17.059 0,-264.528 -214.44,-478.971 -478.968,-478.971 -250.601,0 -456.246,192.459 -477.205,437.632 C -925.995,397.684 -509.444,0 0,0" /></g><g
           transform="translate(219.0083,1074.5752)"
           id="g32"><path
             id="path34"
             style="fill:#4d1877;fill-opacity:1;fill-rule:nonzero;stroke:none"
             d="m 0,0 h -0.304 c 0,-3.228 0.03,-6.446 0.061,-9.663 C -0.194,-6.434 -0.112,-3.214 0,0" /></g><g
           transform="translate(1046.3354,1040.333)"
           id="g36"><path
             id="path38"
             style="fill:#ffffff;fill-opacity:1;fill-rule:nonzero;stroke:none"
             d="m 0,0 -140.205,362.416 c -0.608,2.674 -1.371,8.965 -2.296,18.885 -0.94,9.906 -1.966,16.197 -3.099,18.883 -0.134,-3.754 -0.631,-11.125 -1.486,-22.098 -0.87,-10.986 -1.581,-18.08 -2.147,-21.295 L -202.227,56.252 c -2.926,-16.6 -11.742,-30.135 -26.441,-40.58 C -243.367,5.225 -259.293,0 -276.432,0 h -98.84 l 122.707,695.902 H -105.51 L 32.094,341.523 c 1.568,-3.214 2.868,-9.517 3.903,-18.884 1.021,-9.379 2.227,-16.209 3.619,-20.493 0.755,4.284 1.444,11.252 2.076,20.895 0.621,9.643 1.274,16.334 1.935,20.09 l 62.204,352.771 H 269.762 L 156.974,56.252 C 154.047,39.652 145.231,26.117 130.532,15.672 115.834,5.225 99.907,0 82.769,0 Z" /></g><g
           transform="translate(1485.4634,1276.874)"
           id="g40"><path
             id="path42"
             style="fill:#ffffff;fill-opacity:1;fill-rule:nonzero;stroke:none"
             d="m 0,0 c 1.492,6.537 2.295,13.512 2.398,20.922 0.094,7.4 -0.823,14.375 -2.768,20.922 -1.946,6.537 -5.301,11.963 -10.046,16.273 -4.754,4.301 -11.26,6.457 -19.524,6.457 -7.581,0 -14.283,-1.896 -20.117,-5.683 C -55.892,55.098 -60.991,50.109 -65.354,43.91 -69.725,37.711 -73.359,30.736 -76.275,22.988 -79.191,15.238 -81.318,7.57 -82.653,0 Z m -93.037,-58.891 c -3.705,-21.011 -2.821,-37.968 2.65,-50.884 5.472,-12.914 15.61,-19.371 30.421,-19.371 4.132,0 8.357,0.515 12.671,1.548 4.316,1.034 8.435,2.922 12.367,5.684 3.924,2.752 7.476,6.279 10.65,10.59 3.164,4.301 5.7,9.894 7.609,16.789 H 86.649 c -4.295,-16.531 -11.645,-31.344 -22.041,-44.428 -10.402,-13.084 -22.796,-24.279 -37.173,-33.578 -14.385,-9.299 -30.182,-16.352 -47.386,-21.18 -17.211,-4.818 -34.596,-7.232 -52.16,-7.232 -24.796,0 -45.748,4.221 -62.858,12.656 -17.108,8.443 -30.543,20.149 -40.299,35.129 -9.756,14.981 -15.928,32.713 -18.514,53.209 -2.586,20.484 -1.723,42.957 2.59,67.414 4.553,25.83 12.01,49.076 22.37,69.738 10.359,20.664 23.093,38.229 38.219,52.694 15.118,14.463 32.227,25.57 51.335,33.318 19.1,7.75 39.672,11.625 61.716,11.625 20.663,0 39.14,-3.617 55.428,-10.85 16.289,-7.232 29.69,-17.652 40.207,-31.253 C 88.598,79.119 95.788,62.766 99.65,43.65 103.512,24.537 103.349,3.1 99.158,-20.664 l -6.74,-38.227 z" /></g><g
           transform="translate(1654.6685,1395.6885)"
           id="g44"><path
             id="path46"
             style="fill:#ffffff;fill-opacity:1;fill-rule:nonzero;stroke:none"
             d="M 0,0 17.033,96.603 H 120.867 L 103.834,0 h 52.692 l -6.558,-37.193 c -1.762,-9.995 -5.54,-17.227 -11.317,-21.698 -5.786,-4.478 -13.671,-6.714 -23.655,-6.714 H 92.266 L 65.304,-218.516 c -1.58,-8.961 -1.229,-15.755 1.051,-20.406 2.28,-4.648 6.172,-6.973 11.686,-6.973 h 35.127 l -7.651,-43.394 c -1.761,-9.984 -5.538,-17.217 -11.317,-21.697 -5.784,-4.471 -13.671,-6.715 -23.655,-6.715 h -25.83 c -32.375,0 -55.711,8.783 -70.001,26.346 -14.297,17.564 -18.983,40.294 -14.064,68.189 l 27.782,157.561 h -2.067 c -9.992,0 -17.089,2.236 -21.287,6.714 -4.208,4.471 -5.427,11.703 -3.665,21.698 L -32.028,0 Z" /></g><g
           transform="translate(541.3296,1100.3623)"
           id="g48"><path
             id="path50"
             style="fill:#ffffff;fill-opacity:1;fill-rule:nonzero;stroke:none"
             d="m 0,0 c 0,-33.152 -26.875,-60.029 -60.028,-60.029 -33.154,0 -60.03,26.877 -60.03,60.029 0,33.154 26.876,60.027 60.03,60.027 C -26.875,60.027 0,33.154 0,0" /></g><g
           transform="translate(541.3296,1100.3623)"
           id="g52"><path
             id="path54"
             style="fill:none;stroke:#ffffff;stroke-width:40;stroke-linecap:butt;stroke-linejoin:miter;stroke-miterlimit:10;stroke-dasharray:none;stroke-opacity:1"
             d="m 0,0 c 0,-33.152 -26.875,-60.029 -60.028,-60.029 -33.154,0 -60.03,26.877 -60.03,60.029 0,33.154 26.876,60.027 60.03,60.027 C -26.875,60.027 0,33.154 0,0 Z" /></g><g
           transform="translate(1041.2583,521.999)"
           id="g56"><path
             id="path58"
             style="fill:#ffffff;fill-opacity:1;fill-rule:nonzero;stroke:none"
             d="m 0,0 c 6.28,22.4 12.576,52.15 18.888,89.25 6.3,37.1 10.414,66.379 12.34,87.85 2.737,26.129 -1.095,50.048 -11.498,71.75 -10.415,21.699 -28.21,32.548 -53.411,32.548 h -63 l -68.38,-387.798 h 63 c 20.53,0 40.193,8.98 59.002,26.949 C -24.262,-61.492 -9.911,-35 0,0 m -277.415,-215.602 c -15.871,0 -27.279,4.092 -34.24,12.25 -6.96,8.172 -9.04,20.192 -6.243,36.051 L -219.525,390.6 H -4.626 c 61.13,0 108.44,-18.202 141.922,-54.6 33.482,-36.4 46.709,-83.771 39.693,-142.1 -2.632,-22.871 -7.728,-57.05 -15.281,-102.55 -7.564,-45.5 -14.81,-81.321 -21.747,-107.452 -18.413,-69.998 -50.812,-120.75 -97.195,-152.25 -46.395,-31.498 -97.822,-47.25 -154.282,-47.25 z" /></g><g
           transform="translate(1384.3726,512.4482)"
           id="g60"><path
             id="path62"
             style="fill:#ffffff;fill-opacity:1;fill-rule:nonzero;stroke:none"
             d="m 0,0 c 1.3,5.695 1.998,11.771 2.09,18.225 0.082,6.449 -0.719,12.523 -2.412,18.226 -1.696,5.695 -4.617,10.42 -8.75,14.174 -4.143,3.748 -9.809,5.625 -17.008,5.625 -6.604,0 -12.442,-1.652 -17.524,-4.949 -5.084,-3.307 -9.527,-7.651 -13.327,-13.051 -3.806,-5.4 -6.971,-11.475 -9.512,-18.225 C -68.984,13.275 -70.836,6.596 -72,0 Z m -81.045,-51.301 c -3.226,-18.301 -2.457,-33.074 2.309,-44.324 4.767,-11.25 13.597,-16.875 26.5,-16.875 3.599,0 7.279,0.451 11.037,1.35 3.76,0.9 7.347,2.545 10.773,4.951 3.418,2.396 6.514,5.47 9.277,9.224 2.756,3.748 4.965,8.62 6.629,14.625 h 90 c -3.742,-14.4 -10.144,-27.302 -19.199,-38.699 -9.062,-11.398 -19.859,-21.15 -32.383,-29.25 -12.531,-8.101 -26.291,-14.246 -41.277,-18.451 -14.994,-4.197 -30.137,-6.299 -45.436,-6.299 -21.601,0 -39.852,3.676 -54.757,11.024 -14.903,7.355 -26.606,17.55 -35.104,30.599 -8.499,13.051 -13.875,28.498 -16.127,46.352 -2.254,17.844 -1.503,37.42 2.254,58.724 3.967,22.5 10.463,42.75 19.487,60.75 9.024,18 20.117,33.301 33.294,45.901 13.168,12.599 28.073,22.275 44.717,29.023 16.639,6.75 34.559,10.125 53.762,10.125 18,0 34.094,-3.148 48.282,-9.449 C 47.184,101.699 58.857,92.623 68.018,80.775 77.178,68.92 83.441,54.676 86.805,38.025 90.17,21.375 90.027,2.701 86.377,-18 l -5.872,-33.301 z" /></g><g
           transform="translate(1599.6323,475.0986)"
           id="g64"><path
             id="path66"
             style="fill:#ffffff;fill-opacity:1;fill-rule:nonzero;stroke:none"
             d="M 0,0 C 0.967,2.094 2.266,6.074 3.902,11.924 5.531,17.775 6.83,21.748 7.805,23.85 L 66.419,152.1 h 94.05 L 26.434,-112.949 c -3.266,-6.596 -7.741,-11.996 -13.432,-16.201 -5.69,-4.198 -12.136,-6.301 -19.336,-6.301 h -54.9 L -106.381,152.1 h 93.6 L 1.426,23.4 C 1.652,21.297 1.479,17.324 0.898,11.475 0.316,5.625 0.015,1.799 0,0" /></g></g></g></g></svg>